<svg width="128" height="128" viewBox="0 0 128 128" fill="none" xmlns="http://www.w3.org/2000/svg">
<rect width="128" height="128" rx="20" fill="black"/>
<path d="M30 23C30 17.3995 30 14.5992 31.0899 12.4601C32.0487 10.5785 33.5785 9.04867 35.4601 8.08993C37.5992 7 40.3995 7 46 7H82C87.6005 7 90.4008 7 92.5399 8.08993C94.4215 9.04867 95.9513 10.5785 96.9101 12.4601C98 14.5992 98 17.3995 98 23V106C98 111.601 98 114.401 96.9101 116.54C95.9513 118.422 94.4215 119.951 92.5399 120.91C90.4008 122 87.6005 122 82 122H46C40.3995 122 37.5992 122 35.4601 120.91C33.5785 119.951 32.0487 118.422 31.0899 116.54C30 114.401 30 111.601 30 106V23Z" fill="#1565C0"/>
<path d="M30 58C30 49.7157 36.7157 43 45 43H83C91.2843 43 98 49.7157 98 58V112C98 117.523 93.5228 122 88 122H40C34.4772 122 30 117.523 30 112V58Z" fill="#64B5F6"/>
<path d="M59.1429 47.9711C59.1429 47.3033 59.6842 46.7619 60.352 46.7619H67.4464C68.2255 46.7619 68.8571 47.3935 68.8571 48.1726V48.1726C68.8571 48.9517 68.2255 49.5833 67.4464 49.5833H60.7551C59.8647 49.5833 59.1429 48.8615 59.1429 47.9711V47.9711Z" fill="#938E91"/>
</svg>
