<svg width="128" height="128" viewBox="0 0 128 128" fill="none" xmlns="http://www.w3.org/2000/svg">\
<rect width="128" height="128" rx="10" fill="black"/>\
<path d="M8 29C8 23.3995 8 20.5992 9.08993 18.4601C10.0487 16.5785 11.5785 15.0487 13.4601 14.0899C15.5992 13 18.3995 13 24 13H104C109.601 13 112.401 13 114.54 14.0899C116.422 15.0487 117.951 16.5785 118.91 18.4601C120 20.5992 120 23.3995 120 29V128H8V29Z" fill="#1565C0"/>\
<path d="M8 50C8 41.7157 14.7157 35 23 35H105C113.284 35 120 41.7157 120 50V128H8V50Z" fill="#64B5F6"/>\
<rect x="56" y="38" width="16" height="3" rx="1.5" fill="#B3B3B3"/>\
</svg>